LG_Sit_Stand_Walk07																		
version=1																		
nRows=111																		
nColumns=19																		
inDegrees=yes																		
endheader																		
time	ground_force2_vx	ground_force2_vy	ground_force2_vz	ground_force2_px	ground_force2_py	ground_force2_pz	ground_torque2_x	ground_torque2_y	ground_torque2_z	ground_force1_vx	ground_force1_vy	ground_force1_vz	ground_force1_px	ground_force1_py	ground_force1_pz	ground_torque1_x	ground_torque1_y	ground_torque1_z
2.19	-3.450747	77.947571	3.14469	0.201648	0	-0.366451	1.00E-06	0.808522	1.00E-06	0	0	0	-0.13	0	0.305	0	0	0
2.191	-3.683578	79.332703	3.144848	0.203516	0	-0.366451	2.00E-06	0.808522	1.00E-06	0	0	0	-0.13	0	0.305	0	0	0
2.192	-3.842888	79.332703	3.771572	0.203516	0	-0.364047	2.00E-06	0.808522	1.00E-06	0	0	0	-0.13	0	0.305	0	0	0
2.193	-4.149963	77.782082	3.771692	0.203516	0	-0.364047	2.00E-06	0.770101	1.00E-06	0	0	0	-0.13	0	0.305	0	0	0
2.194	-3.842888	77.611229	3.771692	0.203002	0	-0.367461	0.00E+00	0.897939	1.00E-06	0	0	0	-0.13	0	0.305	0	0	0
2.195	-3.762873	77.608917	3.693203	0.202278	0	-0.367461	0	0.829559	1.00E-06	0	0	0	-0.13	0	0.305	0	0	0
2.196	-3.762873	77.608917	3.30147	0.202278	0	-0.368484	0.00E+00	0.829559	1.00E-06	0	0	0	-0.13	0	0.305	0	0	0
2.197	-3.839281	77.608917	3.30147	0.20292	0	-0.370597	2.00E-06	0.829559	0	0	0	0	-0.13	0	0.305	0	0	0
2.198	-3.839281	77.428764	3.379881	0.20295	0	-0.370597	2.00E-06	0.831918	0	0	0	0	-0.13	0	0.305	0	0	0
2.199	-3.91641	77.428764	3.379881	0.20292	0	-0.368981	2.00E-06	0.831918	1.00E-06	0	0	0	-0.13	0	0.305	0	0	0
2.2	-3.91641	77.428764	3.379881	0.201876	0	-0.365722	2.00E-06	0.831918	1.00E-06	0	0	0	-0.13	0	0.305	0	0	0
2.201	-3.91641	76.923492	3.458212	0.201802	0	-0.364445	2.00E-06	0.81831	1.00E-06	0	0	0	-0.13	0	0.305	0	0	0
2.202	-3.685022	76.395782	3.458212	0.201802	0	-0.364445	0	0.852377	1.00E-06	0	0	0	-0.13	0	0.305	0	0	0
2.203	-3.681414	76.395782	3.536461	0.201802	0	-0.36752	0.00E+00	0.81831	1.00E-06	0	0	0	-0.13	0	0.305	0	0	0
2.204	-3.681414	76.395782	3.458212	0.204625	0	-0.36752	1.00E-06	0.852377	1.00E-06	0	0	0	-0.13	0	0.305	0	0	0
2.205	-3.681414	76.223389	3.536501	0.204276	0	-0.365968	1.00E-06	0.876865	1.00E-06	0	0	0	-0.13	0	0.305	0	0	0
2.206	-3.372896	75.724266	3.536501	0.204276	0	-0.36524	1.00E-06	0.876865	1.00E-06	0	0	0	-0.13	0	0.305	0	0	0
2.207	-3.370733	75.724266	3.536501	0.204276	0	-0.36524	1.00E-06	0.902162	1.00E-06	0	0	0	-0.13	0	0.305	0	0	0
2.208	-3.370733	76.908813	3.379839	0.20202	0	-0.36733	0.00E+00	0.846458	1.00E-06	0	0	0	-0.13	0	0.305	0	0	0
2.209	-3.29649	76.908813	3.379839	0.20202	0	-0.36733	0	0.826695	1.00E-06	0	0	0	-0.13	0	0.305	0	0	0
2.21	-3.290716	75.202377	3.928396	0.20202	0	-0.367144	0.00E+00	0.799135	1.00E-06	0	0	0	-0.13	0	0.305	0	0	0
2.211	-3.290716	75.202377	3.928396	0.201621	0	-0.367144	0	0.799135	1.00E-06	0	0	0	-0.13	0	0.305	0	0	0
2.212	-3.290716	75.698807	3.536543	0.203646	0	-0.369461	0	0.654533	1.00E-06	0	0	0	-0.13	0	0.305	0	0	0
2.213	-3.372175	76.567833	3.536543	0.203619	0	-0.369461	1.00E-06	0.88274	1.00E-06	0	0	0	-0.13	0	0.305	0	0	0
2.214	-3.679972	76.567833	3.379601	0.203646	0	-0.369461	1.00E-06	0.787587	1.00E-06	0	0	0	-0.13	0	0.305	0	0	0
2.215	-3.679972	75.884338	3.614992	0.20471	0	-0.366879	1.00E-06	0.787587	1.00E-06	0	0	0	-0.13	0	0.305	0	0	0
2.216	-3.604286	75.884338	3.849945	0.205331	0	-0.366879	1.00E-06	0.753404	1.00E-06	0	0	0	-0.13	0	0.305	0	0	0
2.217	-3.604286	76.390808	3.849945	0.20471	0	-0.366099	2.00E-06	0.753404	1.00E-06	0	0	0	-0.13	0	0.305	0	0	0
2.218	-3.607893	76.390808	3.693285	0.201591	0	-0.365129	1.00E-06	0.952515	1.00E-06	0	0	0	-0.13	0	0.305	0	0	0
2.219	-3.997149	75.710388	3.536743	0.201591	0	-0.365908	1.00E-06	0.952515	1.00E-06	0	0	0	-0.13	0	0.305	0	0	0
2.22	-3.997149	75.540291	3.458212	0.20218	0	-0.365908	0	0.933262	1.00E-06	0	0	0	-0.13	0	0.305	0	0	0
2.221	-3.997149	75.021484	3.536743	0.204904	0	-0.365908	0	0.807565	1.00E-06	0	0	0	-0.13	0	0.305	0	0	0
2.222	-3.99859	75.021484	3.536623	0.204053	0	-0.366226	2.00E-06	0.924534	1.00E-06	0	0	0	-0.13	0	0.305	0	0	0
2.223	-3.606449	75.881241	3.536623	0.20496	0	-0.366226	2.00E-06	0.820486	1.00E-06	0	0	0	-0.13	0	0.305	0	0	0
2.224	-3.609335	75.881241	3.380081	0.20546	0	-0.370201	2.00E-06	0.884121	1.00E-06	0	0	0	-0.13	0	0.305	0	0	0
2.225	-3.609335	75.881241	3.380001	0.205771	0	-0.370201	2.00E-06	0.866091	1.00E-06	0	0	0	-0.13	0	0.305	0	0	0
2.226	-4.079329	75.023407	3.380081	0.205771	0	-0.367519	2.00E-06	0.884121	1.00E-06	0	0	0	-0.13	0	0.305	0	0	0
2.227	-4.079329	75.023407	4.163549	0.205441	0	-0.366893	2.00E-06	0.866091	1.00E-06	0	0	0	-0.13	0	0.305	0	0	0
2.228	-3.923626	73.9804	4.163549	0.205132	0	-0.366893	1.00E-06	0.916592	0.00E+00	0	0	0	-0.13	0	0.305	0	0	0
2.229	-3.838558	73.9804	3.614912	0.202607	0	-0.372167	0.00E+00	0.857166	1.00E-06	0	0	0	-0.13	0	0.305	0	0	0
2.23	-3.76215	75.527145	3.536743	0.202607	0	-0.372167	1.00E-06	0.915183	1.00E-06	0	0	0	-0.13	0	0.305	0	0	0
2.231	-3.687908	75.703781	3.536743	0.205307	0	-0.372855	1.00E-06	0.857166	1.00E-06	0	0	0	-0.13	0	0.305	0	0	0
2.232	-3.687908	75.703781	3.536743	0.205307	0	-0.376903	1.00E-06	0.843602	1.00E-06	0	0	0	-0.13	0	0.305	0	0	0
2.233	-3.684299	75.703781	4.32033	0.204081	0	-0.376903	2.00E-06	0.843602	1.00E-06	0	0	0	-0.13	0	0.305	0	0	0
2.234	-4.074999	74.143181	4.32033	0.203321	0	-0.372194	3.00E-06	0.853044	1.00E-06	0	0	0	-0.13	0	0.305	0	0	0
2.235	-4.234308	75.007576	4.085138	0.200684	0	-0.372194	2.00E-06	0.967839	0	0	0	0	-0.13	0	0.305	0	0	0
2.236	-4.234308	74.143181	3.850145	0.200684	0	-0.372194	1.00E-06	0.967839	0	0	0	0	-0.13	0	0.305	0	0	0
2.237	-3.841446	75.007576	4.085138	0.20292	0	-0.372595	1.00E-06	0.829965	1.00E-06	0	0	0	-0.13	0	0.305	0	0	0
2.238	-3.450747	74.138916	4.085176	0.20292	0	-0.37341	1.00E-06	0.825909	1.00E-06	0	0	0	-0.13	0	0.305	0	0	0
2.239	-3.450747	74.138916	4.320211	0.203123	0	-0.37341	1.00E-06	0.829965	1.00E-06	0	0	0	-0.13	0	0.305	0	0	0
2.24	-3.765038	73.646759	4.320211	0.202986	0	-0.375561	1.00E-06	0.879895	1.00E-06	0	0	0	-0.13	0	0.305	0	0	0
2.241	-3.765038	72.937782	4.320211	0.202986	0	-0.375561	1.00E-06	0.879895	1.00E-06	0	0	0	-0.13	0	0.305	0	0	0
2.242	-3.765038	72.592926	4.320211	0.202986	0	-0.377231	1.00E-06	0.923865	1.00E-06	0	0	0	-0.13	0	0.305	0	0	0
2.243	-3.765038	72.592926	5.025625	0.201316	0	-0.377231	1.00E-06	0.835674	1.00E-06	0	0	0	-0.13	0	0.305	0	0	0
2.244	-3.765038	72.592926	5.025625	0.204041	0	-0.377422	1.00E-06	0.835674	1.00E-06	0	0	0	-0.13	0	0.305	0	0	0
2.245	-3.611502	72.763832	5.182167	0.202246	0	-0.373642	2.00E-06	0.835674	1.00E-06	0	0	0	-0.13	0	0.305	0	0	0
2.246	-3.216473	72.416267	5.182167	0.202246	0	-0.377422	3.00E-06	0.814015	1.00E-06	0	0	0	-0.13	0	0.305	0	0	0
2.247	-3.531485	72.416267	5.182167	0.20137	0	-0.375236	3.00E-06	0.830769	1.00E-06	0	0	0	-0.13	0	0.305	0	0	0
2.248	-3.531485	71.913315	5.103874	0.20137	0	-0.375236	2.00E-06	0.814015	0.00E+00	0	0	0	-0.13	0	0.305	0	0	0
2.249	-3.610058	70.52433	5.103874	0.201432	0	-0.374637	2.00E-06	0.830769	1.00E-06	0	0	0	-0.13	0	0.305	0	0	0
2.25	-3.610058	70.52433	5.103874	0.201432	0	-0.374637	0.00E+00	0.844114	1.00E-06	0	0	0	-0.13	0	0.305	0	0	0
2.251	-3.533649	70.52433	5.025625	0.201432	0	-0.374637	2.00E-06	0.854226	1.00E-06	0	0	0	-0.13	0	0.305	0	0	0
2.252	-3.533649	70.002815	5.025545	0.198351	0	-0.379627	3.00E-06	0.913048	1.00E-06	0	0	0	-0.13	0	0.305	0	0	0
2.253	-3.533649	70.003983	5.025545	0.201459	0	-0.376345	3.00E-06	0.913048	1.00E-06	0	0	0	-0.13	0	0.305	0	0	0
2.254	-3.687908	70.003983	5.41732	0.201924	0	-0.376345	1.00E-06	0.87243	1.00E-06	0	0	0	-0.13	0	0.305	0	0	0
2.255	-3.52932	70.697136	5.49581	0.201924	0	-0.375449	1.00E-06	0.75638	1.00E-06	0	0	0	-0.13	0	0.305	0	0	0
2.256	-3.52932	70.697136	5.887384	0.201924	0	-0.373927	2.00E-06	0.846553	1.00E-06	0	0	0	-0.13	0	0.305	0	0	0
2.257	-3.452911	70.697136	5.887384	0.202759	0	-0.373927	2.00E-06	0.780222	1.00E-06	0	0	0	-0.13	0	0.305	0	0	0
2.258	-2.984364	70.698273	5.887384	0.202759	0	-0.373927	2.00E-06	0.780222	0.00E+00	0	0	0	-0.13	0	0.305	0	0	0
2.259	-2.90579	71.562309	5.887705	0.202563	0	-0.371645	0	0.698499	0	0	0	0	-0.13	0	0.305	0	0	0
2.26	-2.984364	71.562309	5.965954	0.202563	0	-0.371645	0.00E+00	0.698499	0	0	0	0	-0.13	0	0.305	0	0	0
2.261	-3.295044	68.978333	6.357645	0.202563	0	-0.375665	2.00E-06	0.713952	0.00E+00	0	0	0	-0.13	0	0.305	0	0	0
2.262	-3.295044	68.625412	5.965954	0.200841	0	-0.376183	2.00E-06	0.807808	1.00E-06	0	0	0	-0.13	0	0.305	0	0	0
2.263	-3.295044	68.298698	5.652594	0.200841	0	-0.375665	2.00E-06	0.837111	1.00E-06	0	0	0	-0.13	0	0.305	0	0	0
2.264	-3.688629	68.298698	5.652552	0.200841	0	-0.376235	2.00E-06	0.837111	1.00E-06	0	0	0	-0.13	0	0.305	0	0	0
2.265	-3.688629	68.298698	5.574062	0.201526	0	-0.374324	2.00E-06	0.834779	1.00E-06	0	0	0	-0.13	0	0.305	0	0	0
2.266	-3.530762	69.139206	5.652552	0.200327	0	-0.376235	2.00E-06	0.747844	0.00E+00	0	0	0	-0.13	0	0.305	0	0	0
2.267	-3.140066	69.139206	5.730925	0.201491	0	-0.376634	2.00E-06	0.747844	1.00E-06	0	0	0	-0.13	0	0.305	0	0	0
2.268	-3.220804	68.287895	5.730925	0.200327	0	-0.376634	1.00E-06	0.773012	1.00E-06	0	0	0	-0.13	0	0.305	0	0	0
2.269	-3.220804	67.774887	5.574183	0.200634	0	-0.375726	1.00E-06	0.866796	1.00E-06	0	0	0	-0.13	0	0.305	0	0	0
2.27	-3.220804	67.774887	5.574183	0.200634	0	-0.375647	1.00E-06	0.866796	0	0	0	0	-0.13	0	0.305	0	0	0
2.271	-3.062937	68.631973	6.122736	0.200985	0	-0.374441	2.00E-06	0.883064	0	0	0	0	-0.13	0	0.305	0	0	0
2.272	-3.062937	69.138809	6.122736	0.201087	0	-0.374441	2.00E-06	0.877685	0	0	0	0	-0.13	0	0.305	0	0	0
2.273	-3.143673	69.138809	6.435976	0.200985	0	-0.374342	2.00E-06	0.877685	1.00E-06	0	0	0	-0.13	0	0.305	0	0	0
2.274	-3.143673	67.77182	6.514307	0.201087	0	-0.377361	1.00E-06	0.877385	1.00E-06	0	0	0	-0.13	0	0.305	0	0	0
2.275	-3.143673	67.77182	6.592962	0.200563	0	-0.382872	0.00E+00	0.818199	1.00E-06	0	0	0	-0.13	0	0.305	0	0	0
2.276	-3.221523	68.96907	6.514307	0.202487	0	-0.382872	1.00E-06	0.814866	1.00E-06	0	0	0	-0.13	0	0.305	0	0	0
2.277	-3.30154	69.813034	6.514549	0.203023	0	-0.380284	1.00E-06	0.814866	1.00E-06	0	0	0	-0.13	0	0.305	0	0	0
2.278	-3.30154	69.313538	6.514549	0.203711	0	-0.375968	2.00E-06	0.754448	1.00E-06	0	0	0	-0.13	0	0.305	0	0	0
2.279	-3.297932	69.313538	7.141275	0.203711	0	-0.375968	2.00E-06	0.868513	1.00E-06	0	0	0	-0.13	0	0.305	0	0	0
2.28	-3.297932	69.313538	7.141275	0.203343	0	-0.378357	1.00E-06	0.82836	1.00E-06	0	0	0	-0.13	0	0.305	0	0	0
2.281	-3.220804	69.828468	6.4361	0.200229	0	-0.379366	1.00E-06	0.82836	1.00E-06	0	0	0	-0.13	0	0.305	0	0	0
2.282	-3.220804	69.828468	6.4361	0.203343	0	-0.37844	1.00E-06	0.816132	1.00E-06	0	0	0	-0.13	0	0.305	0	0	0
2.283	-3.220804	69.821907	6.43618	0.20222	0	-0.380326	1.00E-06	0.816132	1.00E-06	0	0	0	-0.13	0	0.305	0	0	0
2.284	-3.144396	68.800903	6.592842	0.20222	0	-0.380326	1.00E-06	0.908126	1.00E-06	0	0	0	-0.13	0	0.305	0	0	0
2.285	-3.379391	69.296982	6.593	0.200308	0	-0.380326	2.00E-06	0.925092	1.00E-06	0	0	0	-0.13	0	0.305	0	0	0
2.286	-3.300097	69.296982	6.827791	0.199349	0	-0.380995	2.00E-06	0.942781	1.00E-06	0	0	0	-0.13	0	0.305	0	0	0
2.287	-3.376505	69.296982	6.827791	0.199349	0	-0.381384	2.00E-06	0.942781	1.00E-06	0	0	0	-0.13	0	0.305	0	0	0
2.288	-3.300097	70.32489	6.827991	0.199867	0	-0.382345	2.00E-06	0.788868	1.00E-06	0	0	0	-0.13	0	0.305	0	0	0
2.289	-2.986528	69.117203	7.45476	0.200148	0	-0.382398	2.00E-06	0.788868	1.00E-06	0	0	0	-0.13	0	0.305	0	0	0
2.29	-2.909399	69.117203	7.611498	0.200148	0	-0.382345	2.00E-06	0.807937	1.00E-06	0	0	0	-0.13	0	0.305	0	0	0
2.291	-2.909399	68.777	7.45476	0.198659	0	-0.381729	2.00E-06	0.85504	0.00E+00	0	0	0	-0.13	0	0.305	0	0	0
2.292	-2.909399	68.255852	7.141314	0.198659	0	-0.381729	2.00E-06	0.85504	1.00E-06	0	0	0	-0.13	0	0.305	0	0	0
2.293	-2.907955	68.424438	7.141314	0.198659	0	-0.383853	2.00E-06	0.833414	1.00E-06	0	0	0	-0.13	0	0.305	0	0	0
2.294	-2.907955	68.424438	8.003355	0.198785	0	-0.383853	1.00E-06	0.833414	1.00E-06	0	0	0	-0.13	0	0.305	0	0	0
2.295	-2.907955	68.424438	8.003355	0.198785	0	-0.383853	0.00E+00	0.869637	1.00E-06	0	0	0	-0.13	0	0.305	0	0	0
2.296	-2.990135	67.556915	8.081604	0.198785	0	-0.386277	1.00E-06	0.883003	0.00E+00	0	0	0	-0.13	0	0.305	0	0	0
2.297	-2.990135	67.386459	8.081604	0.197353	0	-0.386277	2.00E-06	0.869637	0	0	0	0	-0.13	0	0.305	0	0	0
2.298	-2.754417	67.386459	8.081604	0.196726	0	-0.386277	2.00E-06	0.979924	0	0	0	0	-0.13	0	0.305	0	0	0
2.299	-2.754417	67.386459	8.316515	0.196424	0	-0.390161	2.00E-06	0.824234	0.00E+00	0	0	0	-0.13	0	0.305	0	0	0
2.3	-2.754417	66.010567	7.768282	0.196726	0	-0.390249	2.00E-06	0.795872	1.00E-06	0	0	0	-0.13	0	0.305	0	0	0
